<svg xmlns="http://www.w3.org/2000/svg" data-name="Your Icon" viewBox="0 0 100 125" x="0px" y="0px"><title>NOUN-PROJECT_MENU-ET</title><path d="M53.54,50,78.6,24.93a2.5,2.5,0,0,0-3.53-3.53L50,46.46,24.93,21.4a2.5,2.5,0,0,0-3.53,3.53L46.46,50,21.4,75.07a2.5,2.5,0,0,0,1.77,4.26,2.45,2.45,0,0,0,1.76-.73L50,53.54,75.07,78.6a2.45,2.45,0,0,0,1.76.73,2.5,2.5,0,0,0,1.77-4.26Z"/><text x="0" y="115" fill="#000000" font-size="5px" font-weight="bold" font-family="'Helvetica Neue', Helvetica, Arial-Unicode, Arial, Sans-serif">Created by Andreav</text><text x="0" y="120" fill="#000000" font-size="5px" font-weight="bold" font-family="'Helvetica Neue', Helvetica, Arial-Unicode, Arial, Sans-serif">from the Noun Project</text></svg>